<svg width="24" height="24" viewBox="0 0 24 24" fill="none" xmlns="http://www.w3.org/2000/svg">
<path d="M18 22C18.5523 22 19 21.5523 19 21C19 20.4477 18.5523 20 18 20C17.4477 20 17 20.4477 17 21C17 21.5523 17.4477 22 18 22Z" stroke="#38005B" stroke-width="2" stroke-linecap="round" stroke-linejoin="round"/>
<path d="M8 22C8.55228 22 9 21.5523 9 21C9 20.4477 8.55228 20 8 20C7.44772 20 7 20.4477 7 21C7 21.5523 7.44772 22 8 22Z" stroke="#38005B" stroke-width="2" stroke-linecap="round" stroke-linejoin="round"/>
<path d="M1 3H4.63636L7.07273 15.497C7.15586 15.9267 7.38355 16.3127 7.71595 16.5874C8.04835 16.8621 8.46427 17.0081 8.89091 16.9997H17.7273C18.1539 17.0081 18.5698 16.8621 18.9022 16.5874C19.2346 16.3127 19.4623 15.9267 19.5455 15.497L21 7.66655H5.54545" stroke="#38005B" stroke-width="2" stroke-linecap="round" stroke-linejoin="round"/>
</svg>
