<svg width="37" height="52" viewBox="0 0 37 52" fill="none" xmlns="http://www.w3.org/2000/svg">
<path d="M6.74533 30.059C4.69449 28.0973 3.53549 28.5431 2.28715 29.1673C1.03873 29.7915 0.414601 31.3073 0.860452 33.6256C1.34906 36.1663 3.80285 43.2556 7.90453 47.0898C12.0062 50.924 15.5729 52.4399 22.4387 51.2807C29.3046 50.1215 31.3554 46.7332 33.4062 42.8098C35.4571 38.8865 36.2596 31.3073 36.0813 27.1164C35.9219 23.3714 33.2427 18.4981 30.5529 13.8306C27.5212 8.56971 26.0947 6.69738 23.9547 4.11154C21.8147 1.52569 21.0122 1.07951 19.5855 1.07966C18.1478 1.0798 16.9997 2.95208 17.9805 4.82467C15.4293 2.06054 14.2088 0.806037 12.576 0.901545C11.5498 0.96157 10.5468 1.69447 10.1338 2.41716C9.06384 4.28974 10.9363 5.70735 14.1464 10.2639C15.9786 12.8646 18.1935 16.3569 18.996 17.6647C18.6421 17.6647 17.8014 16.8346 15.4293 17.0405C13.0216 17.2496 8.56349 18.5564 7.13682 19.2697C4.89095 20.3927 4.55098 20.9639 3.21347 22.6581C1.70438 24.5696 1.05019 26.8261 3.21347 27.7406C5.37675 28.655 8.11766 25.6006 10.6143 24.8872C12.3172 24.4007 13.8789 24.4414 16.0535 24.4414C17.9805 24.4414 20.1507 26.2943 21.0469 27.1164C23.7821 29.6259 24.3114 31.7531 23.2414 34.6065C22.1714 37.4598 18.5154 39.154 14.057 37.4598C9.5987 35.7657 8.48032 31.7185 6.74533 30.059Z" fill="#FFAC2F"/>
<path d="M7.31495 30.5947C6.1112 28.9897 3.13823 27.5691 3.30244 29.7028C3.48086 32.0211 5.76352 35.7483 8.11753 38.1737C11.06 41.2053 18.8176 43.3453 20.0659 42.097C21.3142 40.8487 14.8942 38.4412 12.1296 36.3012C10.0131 34.6629 8.7862 32.5564 7.31495 30.5947Z" fill="#FFCD9F"/>
<path d="M14.7165 1.6152C12.8179 0.159266 12.5171 1.55594 13.379 2.95282C14.241 4.34975 17.4784 7.92766 19.9772 11.0671C23.4547 15.4363 33.3557 25.347 32.9064 23.6397C32.4605 21.9455 27.1995 15.7039 23.4547 11.4238C19.7098 7.14367 17.3913 3.66632 14.7165 1.6152Z" fill="#FFCD9F"/>
<path d="M21.595 1.60743C19.6964 0.151497 19.739 1.37681 20.6009 2.7737C21.4629 4.17062 24.2568 6.87538 26.6643 10.7987C28.8739 14.3997 34.0049 23.6047 34.2435 21.8554C34.511 19.8938 32.2879 16.2378 29.8743 12.582C27.4607 8.92614 24.2698 3.65855 21.595 1.60743Z" fill="#FFCD9F"/>
<path d="M4.46182 25.065C3.30265 26.8484 1.87598 26.2242 1.87598 25.9567C1.87598 23.4601 4.28348 21.106 5.35349 20.25C6.78016 19.1087 12.6652 17.3082 15.0727 17.0407C17.4802 16.7732 19.0864 17.5852 20.4227 18.1992C23.7219 19.715 30.3202 23.2817 31.5686 24.7084C32.8169 26.135 32.0144 27.1159 30.3202 26.4025C29.1581 25.9132 24.251 23.6114 22.741 22.9251C19.7985 21.5875 17.6585 20.25 15.9644 20.25C14.2702 20.25 8.59073 21.0927 7.67183 21.5875C6.51266 22.2117 4.7235 24.6624 4.46182 25.065Z" fill="#FFCD9F"/>
</svg>
