<svg width="56" height="56" viewBox="0 0 56 56" fill="none" xmlns="http://www.w3.org/2000/svg">
<g clip-path="url(#clip0_131_798)">
<path fill-rule="evenodd" clip-rule="evenodd" d="M36.9382 4.48779C36.9679 2.27885 35.2013 0.464038 32.9924 0.43429L23.822 0.310787C21.6131 0.281039 19.7982 2.04762 19.7685 4.25656L19.6193 15.3367C19.5895 17.5457 17.7747 19.3122 15.5658 19.2825L4.4878 19.1333C2.27886 19.1035 0.464049 20.8701 0.4343 23.0791L0.310798 32.2495C0.28105 34.4584 2.04763 36.2732 4.25657 36.303L15.3345 36.4522C17.5435 36.4819 19.3101 38.2967 19.2803 40.5057L19.1311 51.5818C19.1014 53.7907 20.868 55.6056 23.0769 55.6353L32.2473 55.7588C34.4563 55.7886 36.2711 54.022 36.3008 51.813L36.45 40.7369C36.4797 38.528 38.2946 36.7614 40.5035 36.7911L51.5818 36.9403C53.7908 36.9701 55.6056 35.2035 55.6353 32.9946L55.7588 23.8242C55.7886 21.6152 54.022 19.8004 51.8131 19.7706L40.7347 19.6215C38.5258 19.5917 36.7592 17.7769 36.789 15.5679L36.9382 4.48779Z" fill="#64DBA9"/>
<path fill-rule="evenodd" clip-rule="evenodd" d="M30.2606 4.3079C30.2755 3.20343 29.3922 2.29602 28.2877 2.28115L23.7025 2.21939C22.598 2.20452 21.6906 3.08781 21.6757 4.19228L21.4727 19.269C21.4578 20.3735 20.5504 21.2568 19.4459 21.2419L4.36888 21.0389C3.26442 21.024 2.35701 21.9073 2.34213 23.0117L2.28038 27.5969C2.26551 28.7014 3.1488 29.6088 4.25327 29.6237L19.3303 29.8267C20.4348 29.8416 21.3181 30.749 21.3032 31.8535L21.1001 46.9323C21.0853 48.0368 21.9686 48.9442 23.073 48.9591L27.6582 49.0208C28.7627 49.0357 29.6701 48.1524 29.685 47.0479L29.8881 31.9691C29.9029 30.8646 30.8103 29.9813 31.9148 29.9962L46.9933 30.1993C48.0978 30.2142 49.0052 29.3309 49.0201 28.2264L49.0818 23.6412C49.0967 22.5367 48.2134 21.6293 47.1089 21.6145L32.0304 21.4114C30.9259 21.3965 30.0427 20.4891 30.0575 19.3846L30.2606 4.3079Z" fill="#D9F4E9"/>
</g>
<defs>
<clipPath id="clip0_131_798">
<rect width="56" height="56" fill="white"/>
</clipPath>
</defs>
</svg>
