<svg width="40" height="40" viewBox="0 0 40 40" fill="none" xmlns="http://www.w3.org/2000/svg">
<circle cx="20" cy="20" r="20" fill="#38005B"/>
<g clip-path="url(#clip0_131_825)">
<path fill-rule="evenodd" clip-rule="evenodd" d="M30 20C30 25.5225 25.5225 30 20 30C14.4775 30 10 25.5225 10 20C10 14.4775 14.4775 10 20 10C25.5225 10 30 14.4775 30 20ZM20.3583 17.3825C19.3858 17.7867 17.4417 18.6242 14.5267 19.8942C14.0533 20.0825 13.805 20.2667 13.7825 20.4467C13.7442 20.7517 14.1258 20.8717 14.6442 21.0342C14.715 21.0567 14.7883 21.0792 14.8633 21.1042C15.3742 21.27 16.0608 21.4642 16.4175 21.4717C16.7417 21.4783 17.1033 21.345 17.5025 21.0717C20.2258 19.2325 21.6317 18.3033 21.72 18.2833C21.7825 18.2692 21.8692 18.2508 21.9275 18.3033C21.9858 18.355 21.98 18.4533 21.9742 18.48C21.9358 18.6408 20.4408 20.0317 19.6658 20.7517C19.4242 20.9758 19.2533 21.135 19.2183 21.1717C19.14 21.2525 19.06 21.33 18.9833 21.4042C18.5083 21.8608 18.1533 22.2042 19.0033 22.7642C19.4117 23.0333 19.7383 23.2558 20.0642 23.4775C20.42 23.72 20.775 23.9617 21.235 24.2633C21.3517 24.34 21.4633 24.4192 21.5725 24.4967C21.9867 24.7925 22.3592 25.0575 22.8192 25.0158C23.0858 24.9908 23.3625 24.74 23.5025 23.9908C23.8333 22.2192 24.485 18.3825 24.6358 16.8008C24.645 16.6695 24.6394 16.5376 24.6192 16.4075C24.607 16.3024 24.5559 16.2058 24.4758 16.1367C24.3567 16.0392 24.1717 16.0183 24.0883 16.02C23.7125 16.0267 23.1358 16.2275 20.3583 17.3825Z" fill="#64DBA9"/>
</g>
<defs>
<clipPath id="clip0_131_825">
<rect width="20" height="20" fill="white" transform="translate(10 10)"/>
</clipPath>
</defs>
</svg>
