<svg width="20" height="20" viewBox="0 0 20 20" fill="none" xmlns="http://www.w3.org/2000/svg">
<path d="M13.069 0H6.92965C1.32715 0 -0.000976562 1.32812 -0.000976562 6.93062V13.07C-0.000976562 18.6725 1.32715 20.0006 6.92965 20.0006H13.069C18.6715 20.0006 19.9996 18.6725 19.9996 13.07V6.93062C19.9996 1.32812 18.6584 0 13.069 0ZM16.1453 14.2675H14.6934C14.1434 14.2675 13.974 13.8312 12.9846 12.8287C12.1253 11.9956 11.7446 11.885 11.5328 11.885C11.2334 11.885 11.1484 11.9694 11.1484 12.38V13.6919C11.1484 14.0437 11.0378 14.255 10.1065 14.255C8.56652 14.255 6.85777 13.3237 5.65965 11.5887C3.85277 9.04625 3.3584 7.14187 3.3584 6.74813C3.3584 6.53625 3.44277 6.33812 3.84965 6.33812H5.30465C5.67277 6.33812 5.81277 6.5075 5.9559 6.90125C6.67527 8.97812 7.8734 10.7975 8.36777 10.7975C8.55027 10.7975 8.63465 10.7131 8.63465 10.2475V8.1025C8.57902 7.11312 8.0584 7.02812 8.0584 6.67687C8.0584 6.5075 8.1984 6.33812 8.42277 6.33812H10.7109C11.0203 6.33812 11.134 6.5075 11.134 6.87187V9.76562C11.134 10.0781 11.274 10.1888 11.3584 10.1888C11.5409 10.1888 11.6971 10.0781 12.0353 9.73938C13.0803 8.5675 13.829 6.76063 13.829 6.76063C13.9265 6.54875 14.0959 6.35063 14.464 6.35063H15.919C16.3553 6.35063 16.4528 6.575 16.3553 6.8875C16.1728 7.73375 14.3921 10.2469 14.3921 10.2469C14.239 10.5006 14.1803 10.6112 14.3921 10.8944C14.5484 11.1062 15.0565 11.5456 15.3946 11.9394C16.0165 12.6456 16.4946 13.2381 16.6221 13.6481C16.7653 14.055 16.554 14.2669 16.1434 14.2669L16.1453 14.2675Z" fill="#38005B"/>
</svg>
